<svg xmlns="http://www.w3.org/2000/svg" height="45px" width="45px" viewBox="0 0 24 24" xml:space="preserve" enable-background="new 0 0 24 24"><path d="M12.154 10.73 8.089 5.04H5.92l5.036 7.046.634.886 4.31 6.037h2.169l-5.284-7.394z" fill="#00c7c1" class="fill-000000"></path><path d="M21.16 1H2.84A1.84 1.84 0 0 0 1 2.84v18.32A1.84 1.84 0 0 0 2.84 23h18.32A1.84 1.84 0 0 0 23 21.16V2.84A1.84 1.84 0 0 0 21.16 1zm-5.925 19-4.362-6.213L5.41 20H4l6.247-7.105L4 4h4.765l4.13 5.882L18.07 4h1.411l-5.957 6.776L20 20h-4.765z" fill="#00c7c1" class="fill-000000"></path></svg>